<!DOCTYPE svg PUBLIC "-//W3C//DTD SVG 1.1//EN" "http://www.w3.org/Graphics/SVG/1.1/DTD/svg11.dtd">
<!-- Uploaded to: SVG Repo, www.svgrepo.com, Transformed by: SVG Repo Mixer Tools -->
<svg width="800px" height="800px" viewBox="0 0 24 24" fill="none" xmlns="http://www.w3.org/2000/svg" stroke="#000000">
<g id="SVGRepo_bgCarrier" stroke-width="0"/>
<g id="SVGRepo_tracerCarrier" stroke-linecap="round" stroke-linejoin="round"/>
<g id="SVGRepo_iconCarrier">
<path d="M5.6 2A2.6 2.6 0 0 0 3 4.6v4.8A2.6 2.6 0 0 0 5.6 12h2.8A2.6 2.6 0 0 0 11 9.4V4.6A2.6 2.6 0 0 0 8.4 2H5.6ZM5.6 14A2.6 2.6 0 0 0 3 16.6v2.8A2.6 2.6 0 0 0 5.6 22h2.8a2.6 2.6 0 0 0 2.6-2.6v-2.8A2.6 2.6 0 0 0 8.4 14H5.6ZM15.6 2A2.6 2.6 0 0 0 13 4.6v2.8a2.6 2.6 0 0 0 2.6 2.6h2.8A2.6 2.6 0 0 0 21 7.4V4.6A2.6 2.6 0 0 0 18.4 2h-2.8ZM15.6 12a2.6 2.6 0 0 0-2.6 2.6v4.8a2.6 2.6 0 0 0 2.6 2.6h2.8a2.6 2.6 0 0 0 2.6-2.6v-4.8a2.6 2.6 0 0 0-2.6-2.6h-2.8Z" fill="#FFFFFF"/>
</g>
</svg>